<svg width="16" height="15" viewBox="0 0 16 15" fill="none" xmlns="http://www.w3.org/2000/svg">
<path d="M11 0C13.7614 0 16 2.23858 16 5V10C16 12.7614 13.7614 15 11 15H5C2.23858 15 0 12.7614 0 10V5C0 2.23858 2.23858 0 5 0H11ZM11 1H5C2.79086 1 1 2.79086 1 5V10C1 12.2091 2.79086 14 5 14H11C13.2091 14 15 12.2091 15 10V5C15 2.79086 13.2091 1 11 1ZM9 4C9.27614 4 9.5 4.22386 9.5 4.5V10.5C9.5 10.7761 9.27614 11 9 11C8.72386 11 8.5 10.7761 8.5 10.5V4.5C8.5 4.22386 8.72386 4 9 4ZM13.5 4C13.7761 4 14 4.22386 14 4.5C14 4.77614 13.7761 5 13.5 5L11.5 4.9995V7H13C13.2761 7 13.5 7.22386 13.5 7.5C13.5 7.77614 13.2761 8 13 8H11.5V10.5C11.5 10.7761 11.2761 11 11 11C10.7239 11 10.5 10.7761 10.5 10.5V4.5C10.5 4.22386 10.7239 4 11 4H13.5ZM5.5 4C6.13312 4 6.74275 4.1688 7.27677 4.48397C7.51458 4.62433 7.59358 4.9309 7.45323 5.16871C7.31287 5.40652 7.0063 5.48552 6.76849 5.34517C6.38741 5.12025 5.9531 5 5.5 5C4.11929 5 3 6.11929 3 7.5C3 8.88071 4.11929 10 5.5 10C5.85214 10 6.19294 9.92736 6.50622 9.78941L6.522 9.782L6.52263 7.4998C6.52273 7.24338 6.71584 7.03212 6.96452 7.00334L7.02283 7C7.27925 7.0001 7.49051 7.19321 7.51929 7.44189L7.52263 7.5002L7.52148 10.3717L7.27556 10.5167C6.74183 10.8315 6.13264 11 5.5 11C3.567 11 2 9.433 2 7.5C2 5.567 3.567 4 5.5 4Z" fill="#8C939C"/>
</svg>
