<svg width="15" height="16" viewBox="0 0 15 16" fill="none" xmlns="http://www.w3.org/2000/svg">
<path d="M5.62596 15.5H5.68752L5.74723 15.4851L6.09995 15.3969C7.68108 15.0016 8.75197 13.8784 8.85827 12.3902L8.8588 12.3828L8.85911 12.3754C8.89825 11.436 9.31586 10.3343 9.99706 9.32819C10.6765 8.32471 11.5857 7.46469 12.5512 6.98195L12.558 6.97856L12.5647 6.97497C13.1865 6.64013 13.6763 6.23867 14.0095 5.74548C14.3466 5.24658 14.503 4.6839 14.503 4.0657V4.01081L14.4911 3.95723L14.3196 3.18544C14.2077 2.3529 13.6958 1.52354 12.9508 1.08729C12.2353 0.583389 11.3985 0.37435 10.4711 0.576063L3.255 1.72009L3.25498 1.72001L3.24639 1.72153C1.48329 2.03266 0.236775 3.69495 0.547413 5.55877L0.547352 5.55878L0.548771 5.56655L1.86906 12.7841C1.97775 13.6157 2.4861 14.4457 3.22791 14.8854C3.76879 15.3042 4.48618 15.5 5.09688 15.5H5.62596ZM10.2995 5.35932C10.4504 5.35932 10.5373 5.40744 10.5852 5.45536C10.6332 5.50329 10.6813 5.5902 10.6813 5.74111C10.6813 5.89203 10.6332 5.97894 10.5852 6.02687C10.5373 6.07479 10.4504 6.12291 10.2995 6.12291C10.1486 6.12291 10.0617 6.07479 10.0137 6.02687C9.96582 5.97894 9.9177 5.89203 9.9177 5.74111C9.9177 5.5902 9.96582 5.50329 10.0137 5.45536C10.0617 5.40744 10.1486 5.35932 10.2995 5.35932ZM5.0087 6.24111C5.15962 6.24111 5.24653 6.28924 5.29445 6.33716C5.34238 6.38509 5.3905 6.472 5.3905 6.62291C5.3905 6.77383 5.34238 6.86074 5.29445 6.90866C5.24653 6.95659 5.15962 7.00471 5.0087 7.00471C4.85779 7.00471 4.77088 6.95659 4.72295 6.90866C4.67503 6.86074 4.62691 6.77383 4.62691 6.62291C4.62691 6.472 4.67503 6.38509 4.72295 6.33716C4.77088 6.28924 4.85779 6.24111 5.0087 6.24111Z" stroke="#8C939C"/>
</svg>
