<svg width="16" height="14" viewBox="0 0 16 14" fill="none" xmlns="http://www.w3.org/2000/svg">
<path d="M9.75 0C10.6316 0 11.361 0.651939 11.4823 1.50002L13 1.5C14.6192 1.5 15.9388 2.78279 15.9979 4.38753L16 4.5V11C16 12.6192 14.7172 13.9388 13.1125 13.9979L13 14H3C1.3808 14 0.0612141 12.7172 0.00206924 11.1125L0 11V4.5C0 2.8808 1.28279 1.56121 2.88753 1.50207L3 1.5L4.51772 1.50002C4.63458 0.68293 5.31588 0.0479086 6.15398 0.00258943L6.25 0H9.75ZM9.75 1H6.25C5.86015 1 5.53978 1.29744 5.50343 1.67777L5.5 1.75C5.5 2.16421 5.16421 2.5 4.75 2.5H3C1.9289 2.5 1.05446 3.34198 1.00245 4.40018L1 4.5V11C1 12.0711 1.84198 12.9455 2.90018 12.9976L3 13H13C14.0711 13 14.9455 12.158 14.9976 11.0998L15 11V4.5C15 3.4289 14.158 2.55446 13.0998 2.50245L13 2.5H11.25C10.8358 2.5 10.5 2.16421 10.5 1.75C10.5 1.36015 10.2026 1.03978 9.82223 1.00343L9.75 1ZM8 3.5C10.2091 3.5 12 5.29086 12 7.5C12 9.70914 10.2091 11.5 8 11.5C5.79086 11.5 4 9.70914 4 7.5C4 5.29086 5.79086 3.5 8 3.5ZM8 4.5C6.34315 4.5 5 5.84315 5 7.5C5 9.15685 6.34315 10.5 8 10.5C9.65685 10.5 11 9.15685 11 7.5C11 5.84315 9.65685 4.5 8 4.5ZM13 4C13.2761 4 13.5 4.22386 13.5 4.5C13.5 4.77614 13.2761 5 13 5C12.7239 5 12.5 4.77614 12.5 4.5C12.5 4.22386 12.7239 4 13 4Z" fill="#8C939C"/>
</svg>
