<svg width="20" height="20" viewBox="0 0 20 20" fill="none" xmlns="http://www.w3.org/2000/svg">
<path fill-rule="evenodd" clip-rule="evenodd" d="M10 20C15.5229 20 20 15.5228 20 10C20 4.47717 15.5229 0 10 0C4.47714 0 0 4.47717 0 10C0 15.5228 4.47714 20 10 20ZM10.85 4C10.85 3.53064 10.4694 3.15002 10 3.15002C9.53055 3.15002 9.14999 3.53064 9.14999 4V10.3521L12.399 13.6011C12.7309 13.933 13.2691 13.933 13.601 13.6011C13.933 13.2692 13.933 12.731 13.601 12.3989L10.85 9.64795V4Z" fill="#8C939C"/>
</svg>
