<svg width="20" height="20" viewBox="0 0 20 20" fill="none" xmlns="http://www.w3.org/2000/svg">
<path fill-rule="evenodd" clip-rule="evenodd" d="M17.4448 3.33383C17.1276 1.44178 15.4822 0 13.5 0H6.5C4.51782 0 2.8724 1.44178 2.55522 3.33384C1.64578 4.0371 1.04765 5.12349 1.00272 6.3511C0.378736 7.05661 0 7.98408 0 9V16C0 18.2091 1.79086 20 4 20H16C18.2091 20 20 18.2091 20 16V9C20 7.98408 19.6213 7.05661 18.9973 6.3511C18.9524 5.12349 18.3542 4.0371 17.4448 3.33383ZM13.5 1.5H6.5C5.66683 1.5 4.92886 1.90756 4.47458 2.5342C4.64652 2.51164 4.8219 2.5 5 2.5H15C15.1781 2.5 15.3535 2.51164 15.5254 2.5342C15.0711 1.90757 14.3332 1.5 13.5 1.5ZM16 5C16.3844 5 16.7562 5.05423 17.108 5.15545C16.6639 4.46065 15.8858 4 15 4H5C4.11424 4 3.33607 4.46065 2.89198 5.15545C3.24383 5.05423 3.61558 5 4 5H16ZM14.3577 8.81037C14.7368 9.16527 14.7564 9.76026 14.4015 10.1393L11.6807 13.0454L8.95989 15.9516C8.77116 16.1532 8.45475 16.1636 8.25317 15.9748L5.18636 13.1036C4.80729 12.7487 4.7877 12.1537 5.14259 11.7747C5.49748 11.3956 6.09247 11.376 6.47154 11.7309L8.53063 13.6587L13.0287 8.85415C13.3836 8.47508 13.9786 8.45548 14.3577 8.81037Z" fill="#8C939C"/>
</svg>
