<svg width="20" height="20" viewBox="0 0 20 20" fill="none" xmlns="http://www.w3.org/2000/svg">
<path fill-rule="evenodd" clip-rule="evenodd" d="M10 20C15.5229 20 20 15.5229 20 10C20 4.47714 15.5229 0 10 0C4.47715 0 0 4.47714 0 10C0 15.5229 4.47715 20 10 20ZM11.5 5.75C11.5 6.44037 10.9404 7 10.25 7C9.55965 7 9 6.44037 9 5.75C9 5.05963 9.55965 4.5 10.25 4.5C10.9404 4.5 11.5 5.05963 11.5 5.75ZM9.5 8.5C8.94772 8.5 8.5 8.94772 8.5 9.5C8.5 10.0523 8.94772 10.5 9.5 10.5V14.5C9.5 15.0523 9.94772 15.5 10.5 15.5C11.0523 15.5 11.5 15.0523 11.5 14.5V9.5C11.5 8.94772 11.0523 8.5 10.5 8.5H9.5Z" fill="#8C939C"/>
</svg>
