<svg width="21" height="20" viewBox="0 0 21 20" fill="none" xmlns="http://www.w3.org/2000/svg">
<path fill-rule="evenodd" clip-rule="evenodd" d="M11.0931 0.0221792C12.1747 -0.140062 13.1831 0.605231 13.3453 1.68684C13.5373 2.96647 13.2463 4.62785 12.6767 6.09918C12.6652 6.12897 12.6535 6.15884 12.6416 6.18877H18.0705C19.0275 6.18877 19.8033 6.96456 19.8033 7.92155C19.8033 8.46376 19.5543 8.9478 19.1644 9.26553C19.8263 9.50927 20.2984 10.1455 20.2984 10.8921C20.2984 11.663 19.795 12.3163 19.0989 12.5413C19.2324 12.7869 19.3082 13.0683 19.3082 13.3675C19.3082 14.3245 18.5324 15.1003 17.5754 15.1003H17.3029C17.6239 15.4148 17.823 15.8531 17.823 16.338C17.823 17.295 17.0472 18.0708 16.0902 18.0708H8.16888C7.21189 18.0708 6.43609 17.295 6.43609 16.338C6.43609 16.2539 6.44208 16.1713 6.45364 16.0905H6.43609V8.69604C6.42626 8.04579 6.73658 7.40404 7.31792 7.01648C7.96853 6.58274 8.57064 5.73504 8.98314 4.66941C9.40376 3.58282 9.48408 2.64501 9.42848 2.27436C9.26624 1.19276 10.0115 0.18442 11.0931 0.0221792ZM1 7.17898C0.447715 7.17898 0 7.6267 0 8.17898V18.061C0 18.6133 0.447717 19.061 1 19.061H3.95083C4.50311 19.061 4.95083 18.6133 4.95083 18.061V8.17898C4.95083 7.6267 4.50311 7.17898 3.95083 7.17898H1Z" fill="#8C939C"/>
</svg>
