<svg width="40" height="40" viewBox="0 0 40 40" fill="none" xmlns="http://www.w3.org/2000/svg">
<circle cx="20" cy="20" r="20" fill="#E5E6EB"/>
<path d="M19.5721 12C24.4007 12 28.1435 15.5371 28.1435 20.3143C28.1435 25.0914 24.4007 28.6286 19.5721 28.6286C18.734 28.6305 17.8993 28.5198 17.0907 28.2993C16.9388 28.2573 16.777 28.2692 16.6328 28.3329L14.9293 29.0836C14.8265 29.1289 14.7141 29.1482 14.6021 29.14C14.49 29.1317 14.3817 29.0961 14.2867 29.0362C14.1916 28.9764 14.1127 28.8941 14.0569 28.7966C14.001 28.6991 13.97 28.5894 13.9664 28.4771L13.92 26.9529C13.9168 26.8601 13.8948 26.7689 13.8553 26.6849C13.8157 26.6009 13.7595 26.5258 13.69 26.4643C12.83 25.6895 12.1452 24.7401 11.6815 23.6796C11.2177 22.619 10.9856 21.4717 11.0007 20.3143C11.0007 15.5371 14.7435 12 19.5721 12ZM14.425 22.7457C14.374 22.8264 14.3531 22.9224 14.3657 23.017C14.3784 23.1116 14.4238 23.1987 14.4942 23.2632C14.5645 23.3277 14.6553 23.3654 14.7506 23.3698C14.8459 23.3741 14.9397 23.3449 15.0157 23.2871L17.72 21.2343C17.8093 21.1671 17.9181 21.1307 18.03 21.1307C18.1418 21.1307 18.2506 21.1671 18.34 21.2343L20.34 22.7343C20.4821 22.8405 20.6446 22.9162 20.8173 22.9565C20.9901 22.9969 21.1693 23.0011 21.3437 22.9688C21.5181 22.9365 21.684 22.8685 21.8309 22.769C21.9778 22.6695 22.1024 22.5407 22.1971 22.3907L24.715 18.3964C24.7659 18.3157 24.7869 18.2197 24.7742 18.1251C24.7616 18.0306 24.7161 17.9434 24.6458 17.879C24.5754 17.8145 24.4847 17.7768 24.3894 17.7724C24.2941 17.768 24.2002 17.7972 24.1243 17.855L21.42 19.9079C21.3306 19.9751 21.2218 20.0114 21.11 20.0114C20.9981 20.0114 20.8893 19.9751 20.8 19.9079L18.8 18.4079C18.6579 18.3016 18.4954 18.226 18.3226 18.1856C18.1499 18.1453 17.9707 18.1411 17.7962 18.1734C17.6218 18.2056 17.4559 18.2736 17.3091 18.3731C17.1622 18.4726 17.0375 18.6014 16.9428 18.7514L14.425 22.7457Z" fill="#66676B"/>
</svg>
