<svg width="40" height="40" viewBox="0 0 40 40" fill="none" xmlns="http://www.w3.org/2000/svg">
<circle cx="20" cy="20" r="20" fill="#E5E6EB"/>
<path d="M15.4883 26.9551C16.4597 26.9551 18.0568 26.8658 20.2168 26.468C19.8433 27.4837 18.8697 28.2115 17.7261 28.2115C16.7754 28.2115 15.9425 27.708 15.4725 26.9551H15.4883ZM27.6854 21.4137C27.8618 22.3222 27.2247 23.1258 25.7904 23.8037C25.0047 24.1744 23.2576 24.8801 20.3718 25.4415C18.1461 25.8737 16.5154 25.973 15.489 25.973C15.184 25.973 14.9318 25.9644 14.7333 25.953C13.1504 25.8622 12.2575 25.3551 12.0811 24.4465C11.8133 23.0701 12.2368 22.5387 12.939 21.6587L13.124 21.4265C13.5975 20.8258 13.7825 20.2358 13.4797 18.6794C12.8018 15.1937 14.3718 12.8115 17.7861 12.1444C21.2018 11.4851 23.5504 13.1037 24.2283 16.5901C24.5304 18.1465 24.9233 18.6237 25.5876 19.003V19.0037L25.8461 19.1501C26.8261 19.703 27.4176 20.0365 27.6854 21.4137Z" fill="#66676B"/>
</svg>
