<svg width="19" height="19" viewBox="0 0 19 19" fill="none" xmlns="http://www.w3.org/2000/svg">
<path fill-rule="evenodd" clip-rule="evenodd" d="M5.34747 13.65C3.48847 11.8161 0.352502 7.94049 0.025839 4.84831C-0.0870082 3.79187 0.174322 2.87193 0.72074 2.07663C1.31467 1.22791 2.23527 0.515699 3.19744 0.141789C3.87452 -0.119355 4.47439 -0.0837445 4.87827 0.800583L6.77291 4.89579C7.14115 5.6911 6.16116 6.43892 5.59693 7.22235C5.24057 7.72089 5.18711 7.8574 5.48408 8.39156C5.87013 9.08597 6.76103 10.2018 7.77072 11.2285C8.79228 12.2375 9.90888 13.1278 10.6097 13.5135C11.1443 13.8103 11.2809 13.7569 11.7738 13.4008C12.5578 12.8369 13.3062 11.8577 14.102 12.2256L18.2002 14.1189C19.0792 14.5284 19.1208 15.1279 18.8594 15.8045C18.4853 16.766 17.7725 17.6859 16.9232 18.2794C16.1273 18.8314 15.2068 19.0866 14.1496 18.9738C11.0611 18.6415 7.18272 15.5077 5.34747 13.65Z" fill="#8C939C"/>
</svg>
