<svg width="20" height="20" viewBox="0 0 20 20" fill="none" xmlns="http://www.w3.org/2000/svg">
<path fill-rule="evenodd" clip-rule="evenodd" d="M10.4482 19.9901C10.2996 19.9967 10.1502 20 10 20C9.84981 20 9.70039 19.9967 9.55182 19.9901C9.53456 19.9935 9.51729 19.9968 9.5 20V19.9877C4.20944 19.7272 0 15.3552 0 10C0 4.64481 4.20944 0.272798 9.5 0.0122825V0C9.51729 0.00322226 9.53456 0.00651032 9.55182 0.00986398C9.70039 0.003311 9.84981 0 10 0C10.1502 0 10.2996 0.00331102 10.4482 0.00986405C10.4654 0.00651037 10.4827 0.00322228 10.5 0V0.0122826C15.7906 0.272799 20 4.64482 20 10C20 15.3552 15.7906 19.7272 10.5 19.9877V20C10.4827 19.9968 10.4654 19.9935 10.4482 19.9901ZM12.9421 16.1681C12.307 16.9432 11.5594 17.5561 10.75 17.9724V16.4791C11.5068 16.4367 12.2406 16.3308 12.9421 16.1681ZM9.25 11V14.9774C8.00446 14.9017 6.86922 14.6391 5.87269 14.239C5.44117 13.2778 5.14959 12.1878 5.04398 11H9.25ZM10.75 9.5V5.02259C11.9955 5.09829 13.1308 5.36091 14.1273 5.76096C14.6187 6.85555 14.9286 8.11725 14.9891 9.5H10.75ZM10.75 11H14.956C14.8504 12.1878 14.5588 13.2778 14.1273 14.239C13.1308 14.6391 11.9955 14.9017 10.75 14.9774V11ZM16.4602 11C16.4007 11.7438 16.2754 12.4639 16.0917 13.1515C16.9291 12.531 17.581 11.7932 18.0117 11H16.4602ZM18.2508 9.5C17.8434 8.51787 17.1028 7.59766 16.0917 6.8485C16.3163 7.68917 16.4535 8.57839 16.4901 9.5H18.2508ZM9.25 9.5V5.02259C8.00446 5.09829 6.86922 5.36091 5.87269 5.76096C5.38129 6.85555 5.07137 8.11725 5.01088 9.5H9.25ZM3.5099 9.5C3.54649 8.57839 3.68367 7.68917 3.90827 6.8485C2.89723 7.59766 2.15664 8.51787 1.74917 9.5H3.5099ZM1.98827 11C2.41901 11.7932 3.07088 12.531 3.90827 13.1515C3.72456 12.4639 3.59933 11.7438 3.53981 11H1.98827ZM10.75 2.02759V3.52091C11.5068 3.56328 12.2406 3.66924 12.9421 3.83185C12.307 3.0568 11.5594 2.44394 10.75 2.02759ZM9.25 2.02759V3.52091C8.49318 3.56328 7.75944 3.66924 7.05789 3.83185C7.69305 3.0568 8.44063 2.44395 9.25 2.02759ZM9.25 16.4791V17.9724C8.44063 17.5561 7.69305 16.9432 7.05789 16.1681C7.75944 16.3308 8.49318 16.4367 9.25 16.4791ZM6.40327 2.29624C5.76678 2.96099 5.21369 3.74222 4.76595 4.61305C3.90474 5.01134 3.1273 5.50496 2.45862 6.07478C3.32058 4.42212 4.70985 3.08822 6.40327 2.29624ZM4.76595 15.3869C5.21369 16.2578 5.76677 17.039 6.40327 17.7038C4.70985 16.9118 3.32058 15.5779 2.45862 13.9252C3.1273 14.495 3.90474 14.9887 4.76595 15.3869ZM17.5414 13.9252C16.6794 15.5779 15.2902 16.9118 13.5967 17.7038C14.2332 17.039 14.7863 16.2578 15.2341 15.3869C16.0953 14.9887 16.8727 14.495 17.5414 13.9252ZM17.5414 6.07478C16.8727 5.50496 16.0953 5.01134 15.2341 4.61305C14.7863 3.74222 14.2332 2.96099 13.5967 2.29624C15.2902 3.08822 16.6794 4.42212 17.5414 6.07478Z" fill="#8C939C"/>
</svg>
